<?xml version="1.0" encoding="UTF-8"?>
<svg xmlns="http://www.w3.org/2000/svg" width="240" height="240" viewBox="-17 -23.5 240 240">
  <rect x="-17" y="-23.5" width="240" height="240" rx="40" fill="#090909"/>
  <path fill="#E5FE00" d="M205.97,56.82L159.2,3.9c-1.44-1.63-3.58-2.57-5.84-2.57H54.56c-2.26,0-4.4.94-5.84,2.57L1.95,56.82c-1.12,1.27-1.74,2.86-1.74,4.51L0,183.88c0,5.13,5.63,8.57,10.64,6.5l35.21-14.56c3.11-1.28,6.75-.48,8.91,1.97l9.97,11.3c2.83,3.21,7.99,3.46,11.16.55l14.79-13.59c7.41-6.81,19.49-6.75,26.84.12l13.84,12.95c3.32,3.1,8.83,2.67,11.54-.91l8.25-10.88c2.09-2.76,5.98-3.75,9.28-2.37l36.61,15.35c5.01,2.1,10.68-1.33,10.68-6.47V61.34c0-1.65-.61-3.25-1.74-4.52ZM77.09,81.36c-8.76,8.46-31.91,24.8-49.74-16.66-1.19-2.78,1.7-5.56,4.69-4.49l43.73,15.56c2.46.88,3.15,3.82,1.32,5.59ZM180.34,64.7c-17.83,41.46-40.98,25.12-49.74,16.66-1.83-1.77-1.14-4.71,1.32-5.59l43.73-15.56c2.99-1.06,5.89,1.72,4.69,4.49Z"/>
</svg>
