<svg xmlns="http://www.w3.org/2000/svg" viewBox="0 0 189.22 38.65">
  <defs>
    <style>
      .hlogo-cls-1, .hlogo-cls-2 { fill: #f7f8f8; }
      .hlogo-cls-2 { stroke: #f7f8f8; stroke-miterlimit: 10; }
      .hlogo-cls-3 { fill: #E5FE00; }
    </style>
  </defs>
  <g>
    <line class="hlogo-cls-2" x1="54.03" x2="54.03" y2="38.65"/>
    <path class="hlogo-cls-1" d="M41.25,11.38L31.88.78c-.29-.33-.72-.52-1.17-.52H10.93c-.45,0-.88.19-1.17.52L.39,11.38c-.22.25-.35.57-.35.9L0,36.82c0,1.03,1.13,1.72,2.13,1.3l7.05-2.92c.62-.26,1.35-.1,1.78.39l2,2.26c.57.64,1.6.69,2.23.11l2.96-2.72c1.48-1.36,3.9-1.35,5.37.02l2.77,2.59c.66.62,1.77.53,2.31-.18l1.65-2.18c.42-.55,1.2-.75,1.86-.47l7.33,3.07c1,.42,2.14-.27,2.14-1.3V12.28c0-.33-.12-.65-.35-.9ZM15.44,16.29c-1.75,1.7-6.39,4.97-9.96-3.34-.24-.56.34-1.11.94-.9l8.76,3.12c.49.18.63.76.26,1.12ZM36.11,12.96c-3.57,8.3-8.21,5.03-9.96,3.34-.37-.35-.23-.94.26-1.12l8.76-3.12c.6-.21,1.18.34.94.9Z"/>
    <g>
      <path class="hlogo-cls-1" d="M73.2,10.7c3.67.19,8.83.44,8.82,3.74,0,3.76-4.31,4.65-8.93,4.65-4.54,0-8.33-.55-8.9-4.47-.01-.09.06-.18.15-.18h5.11c.05,0,.1.03.13.07.61.96,1.94,1.21,3.51,1.21s3.55-.26,3.55-1.28c0-.58-1.6-.67-3.66-.76-3.67-.19-8.83-.44-8.82-3.73,0-3.76,4.31-4.66,8.93-4.66,4.54.03,8.33.53,8.91,4.48.01.09-.06.18-.15.18h-5.11c-.05,0-.1-.03-.13-.07-.61-.98-1.94-1.21-3.51-1.21s-3.55.24-3.55,1.28c0,.58,1.6.66,3.66.75Z"/>
      <path class="hlogo-cls-1" d="M96.07,5.63h-12.52c-.09,0-.15.07-.15.15v12.85c0,.09.07.15.15.15h4.82c.09,0,.15-.07.15-.15v-2.9c0-.09.07-.15.15-.15h7.39c2.71.04,5.01-2.26,4.97-4.97.04-2.72-2.26-5-4.97-4.97ZM95.71,11.22c-.22.32-.61.49-1,.49h-6.04c-.09,0-.15-.07-.15-.15v-1.93c0-.09.07-.15.15-.15h6.11c.3,0,.57.11.78.33.23.22.33.48.33.79,0,.23-.06.44-.19.63Z"/>
      <path class="hlogo-cls-1" d="M146.19,14.42v4.19c0,.09-.07.15-.15.15h-4.82c-.09,0-.15-.07-.15-.15V5.76c0-.09.07-.15.15-.15h4.82c.09,0,.15.07.15.15v4.19c0,.09.07.15.15.15h2.03s.08-.01.1-.04l4.74-4.41s.07-.04.1-.04h6.29c.14,0,.21.17.11.26l-6.43,6.2c-.06.06-.06.16,0,.22l6.43,6.2c.1.1.03.26-.11.26h-6.29s-.08-.01-.1-.04l-4.74-4.41s-.07-.04-.1-.04h-2.03c-.09,0-.15.07-.15.15Z"/>
      <path class="hlogo-cls-1" d="M111.23,5.28c-4.95,0-9.01,1.44-8.99,6.42v.96c-.02,4.97,4.03,6.41,8.99,6.42,4.94,0,9-1.45,8.98-6.42v-.96c0-4.97-4.02-6.42-8.98-6.42ZM115.66,12.66c-1.49,1.52-5.4,4.4-8.75-2.47-.25-.5.32-1.02.91-.84l7.53,2.31c.48.15.64.66.31,1Z"/>
      <path class="hlogo-cls-1" d="M130.57,5.28c-4.95,0-9.01,1.44-8.99,6.42v.96c-.02,4.97,4.03,6.41,8.99,6.42,4.94,0,9-1.45,8.98-6.42v-.96c0-4.97-4.02-6.42-8.98-6.42ZM135,10.19c-3.36,6.87-7.26,3.99-8.75,2.47-.33-.34-.17-.85.31-1l7.53-2.31c.6-.18,1.16.33.91.84Z"/>
    </g>
  </g>
  <g>
    <path class="hlogo-cls-3" d="M74.79,29c-.19,2.6-2.47,3.38-5.25,3.38-2.89,0-5.28-.84-5.27-3.76v-.56c-.01-2.91,2.38-3.75,5.27-3.76,2.78,0,5.06.79,5.25,3.39h-3.08c-.28-.76-1.14-.94-2.17-.94-1.23.02-2.27.24-2.25,1.5v.19c-.02,1.26,1.03,1.49,2.25,1.5,1.03,0,1.89-.18,2.17-.94h3.08Z"/>
    <path class="hlogo-cls-3" d="M86.05,28.06v.56c.01,2.92-2.36,3.76-5.26,3.76-2.9,0-5.28-.85-5.27-3.76v-.56c-.01-2.92,2.36-3.76,5.27-3.76,2.9,0,5.26.85,5.26,3.76ZM83.04,28.24c.02-1.26-1.03-1.49-2.25-1.5-1.23.02-2.28.25-2.26,1.5v.19c-.02,1.26,1.03,1.49,2.26,1.51,1.23-.02,2.27-.25,2.25-1.51v-.19Z"/>
    <path class="hlogo-cls-3" d="M94.45,24.48h3.01v7.71h-3.38l-4.14-4.71v4.71h-3.01v-7.71h4.14l3.38,4.08v-4.08Z"/>
    <path class="hlogo-cls-3" d="M99.2,24.49h9.4v2.44h-6.4v.94h5.65v2.25h-5.65v2.07h-3.01v-7.71Z"/>
    <path class="hlogo-cls-3" d="M112.46,24.48v7.71h-3.01v-7.71h3.01Z"/>
    <path class="hlogo-cls-3" d="M118.58,27.96h5.24v4.42h-1.5l-.15-1.2c-.89.88-2.25,1.2-3.56,1.2-2.9-.01-5.28-.85-5.27-3.76v-.56c-.01-2.92,2.36-3.76,5.27-3.76,2.67,0,4.88.73,5.21,3.1h-3.2c-.19-.26-.46-.43-.82-.52-.36-.09-.76-.14-1.2-.14-1.23.02-2.28.25-2.26,1.5v.19c-.02,1.27,1.03,1.49,2.26,1.5,1.19,0,1.94-.07,2.4-.65h-2.42v-1.32Z"/>
    <path class="hlogo-cls-3" d="M132.33,24.48h3.01v4.14c.01,2.91-2.38,3.75-5.27,3.76-2.89,0-5.28-.84-5.27-3.76v-4.14h3.01v3.95c-.01,1.27,1.03,1.49,2.26,1.5,1.23-.02,2.27-.24,2.25-1.5v-3.95Z"/>
    <path class="hlogo-cls-3" d="M144.12,24.49c1.59-.02,2.94,1.32,2.91,2.92,0,.58-.16,1.11-.46,1.58-.3.46-.71.82-1.22,1.06l1.68,2.16h-3.2l-1.45-1.88h-2.68v1.88h-3.01v-7.71h7.43ZM139.69,26.74v1.31h3.67c.18,0,.34-.06.46-.19.13-.13.2-.29.2-.46,0-.37-.29-.66-.66-.66h-3.67Z"/>
    <path class="hlogo-cls-3" d="M151.39,24.49h3.58l4.14,7.71h-3.38l-.61-1.32h-3.86l-.61,1.32h-3.38l4.14-7.71ZM152.12,29h2.12l-1.06-2.28-1.06,2.28Z"/>
    <path class="hlogo-cls-3" d="M160.67,32.2v-5.27h-3.57v-2.44h10.15v2.44h-3.57v5.27h-3.01Z"/>
    <path class="hlogo-cls-3" d="M178,28.06v.56c.01,2.92-2.36,3.76-5.26,3.76-2.9,0-5.28-.85-5.27-3.76v-.56c-.01-2.92,2.36-3.76,5.27-3.76,2.9,0,5.26.85,5.26,3.76ZM174.99,28.24c.02-1.26-1.03-1.49-2.25-1.5-1.23.02-2.28.25-2.26,1.5v.19c-.02,1.26,1.03,1.49,2.26,1.51,1.23-.02,2.27-.25,2.25-1.51v-.19Z"/>
    <path class="hlogo-cls-3" d="M186.3,24.49c1.59-.02,2.94,1.32,2.91,2.92,0,.58-.16,1.11-.46,1.58-.3.46-.71.82-1.22,1.06l1.68,2.16h-3.2l-1.45-1.88h-2.68v1.88h-3.01v-7.71h7.43ZM181.88,26.74v1.31h3.67c.18,0,.34-.06.46-.19.13-.13.2-.29.2-.46,0-.37-.29-.66-.66-.66h-3.67Z"/>
  </g>
</svg>
