<?xml version="1.0" encoding="UTF-8"?>
<svg id="_圖層_2" data-name="圖層 2" xmlns="http://www.w3.org/2000/svg" viewBox="0 0 2073.89 193">
  <defs>
    <style>
      .cls-1 {
        fill: #e5fe00;
      }

      .cls-2 {
        fill: #f2f2f2;
      }

      .cls-3 {
        stroke: #f2f2f2;
        stroke-miterlimit: 10;
        stroke-width: 3px;
      }
    </style>
  </defs>
  <line class="cls-3" x1="269.81" x2="269.81" y2="193"/>
  <path class="cls-2" d="M205.97,56.82L159.2,3.9c-1.44-1.63-3.58-2.57-5.84-2.57H54.56c-2.26,0-4.4.94-5.84,2.57L1.95,56.82c-1.12,1.27-1.74,2.86-1.74,4.51L0,183.88c0,5.13,5.63,8.57,10.64,6.5l35.21-14.56c3.11-1.28,6.75-.48,8.91,1.97l9.97,11.3c2.83,3.21,7.99,3.46,11.16.55l14.79-13.59c7.41-6.81,19.49-6.75,26.84.12l13.84,12.95c3.32,3.1,8.83,2.67,11.54-.91l8.25-10.88c2.09-2.76,5.98-3.75,9.28-2.37l36.61,15.35c5.01,2.1,10.68-1.33,10.68-6.47V61.34c0-1.65-.61-3.25-1.74-4.52ZM77.09,81.36c-8.76,8.46-31.91,24.8-49.74-16.66-1.19-2.78,1.7-5.56,4.69-4.49l43.73,15.56c2.46.88,3.15,3.82,1.32,5.59ZM180.34,64.7c-17.83,41.46-40.98,25.12-49.74,16.66-1.83-1.77-1.14-4.71,1.32-5.59l43.73-15.56c2.99-1.06,5.89,1.72,4.69,4.49Z"/>
  <g>
    <path class="cls-2" d="M365.53,53.42c18.33.93,44.1,2.2,44.05,18.68,0,18.77-21.51,23.22-44.59,23.22-22.69-.05-41.58-2.76-44.47-22.34-.07-.46.3-.88.77-.88h25.53c.26,0,.5.14.65.37,3.04,4.78,9.7,6.04,17.52,6.04s17.75-1.32,17.75-6.4c0-2.88-7.97-3.32-18.28-3.81-18.33-.93-44.1-2.2-44.05-18.63,0-18.77,21.51-23.27,44.59-23.27,22.69.14,41.59,2.66,44.47,22.39.07.46-.3.88-.77.88h-25.53c-.27,0-.51-.14-.65-.37-3.04-4.87-9.7-6.03-17.53-6.03s-17.75,1.17-17.75,6.41c0,2.88,7.97,3.28,18.28,3.76Z"/>
    <path class="cls-2" d="M479.73,28.09h-62.54c-.42,0-.77.34-.77.77v64.17c0,.42.34.77.77.77h24.08c.42,0,.77-.34.77-.77v-14.5c0-.42.34-.77.77-.77h36.92c13.54.2,25.03-11.29,24.84-24.84.2-13.59-11.29-24.98-24.84-24.84ZM477.94,56.05c-1.12,1.6-3.03,2.45-4.99,2.45h-30.15c-.42,0-.77-.34-.77-.77v-9.66c0-.42.34-.77.77-.77h30.52c1.52,0,2.84.54,3.91,1.66,1.12,1.08,1.66,2.4,1.66,3.96,0,1.16-.31,2.2-.96,3.13Z"/>
    <path class="cls-2" d="M730.05,72.03v20.9c0,.42-.34.77-.77.77h-24.08c-.42,0-.77-.34-.77-.77V28.76c0-.42.34-.77.77-.77h24.08c.42,0,.77.34.77.77v20.9c0,.42.34.77.77.77h10.12c.19,0,.38-.07.52-.21l23.66-22.03c.14-.13.33-.21.52-.21h31.43c.69,0,1.03.84.53,1.32l-32.13,30.98c-.31.3-.31.8,0,1.11l32.13,30.98c.5.48.16,1.32-.53,1.32h-31.43c-.19,0-.38-.07-.52-.21l-23.66-22.03c-.14-.13-.33-.21-.52-.21h-10.12c-.42,0-.77.34-.77.77Z"/>
    <path class="cls-2" d="M555.46,26.38c-24.74.05-44.98,7.19-44.88,32.07v4.79c-.1,24.84,20.14,32.02,44.88,32.07,24.69-.05,44.93-7.24,44.83-32.07v-4.79c0-24.84-20.09-32.07-44.83-32.07ZM577.57,63.21c-7.46,7.58-26.95,21.98-43.7-12.33-1.23-2.52,1.58-5.1,4.56-4.19l37.59,11.53c2.4.74,3.2,3.31,1.55,4.99Z"/>
    <path class="cls-2" d="M652.02,26.38c-24.74.05-44.98,7.19-44.88,32.07v4.79c-.1,24.84,20.14,32.02,44.88,32.07,24.69-.05,44.93-7.24,44.83-32.07v-4.79c0-24.84-20.09-32.07-44.83-32.07ZM674.14,50.88c-16.76,34.31-36.24,19.91-43.7,12.33-1.65-1.68-.85-4.25,1.55-4.99l37.59-11.53c2.99-.92,5.79,1.67,4.56,4.19Z"/>
  </g>
  <g>
    <path class="cls-1" d="M340.74,122.27h20.1l23.26,43.35h-19.03l-3.42-7.42h-21.71l-3.42,7.42h-19.03l23.26-43.35ZM344.84,147.62h11.9l-5.94-12.81-5.97,12.81Z"/>
    <path class="cls-1" d="M423.58,122.2h16.94v23.29c.06,16.39-13.35,21.1-29.61,21.13-16.26-.03-29.68-4.74-29.61-21.13v-23.29h16.9v22.23c-.06,7.13,5.77,8.35,12.71,8.45,6.9-.1,12.77-1.32,12.68-8.45v-22.23Z"/>
    <path class="cls-1" d="M466.2,165.62v-29.61h-20.1v-13.74h57.1v13.74h-20.1v29.61h-16.9Z"/>
    <path class="cls-1" d="M563.68,142.3v3.16c.06,16.39-13.29,21.13-29.58,21.16-16.32-.03-29.68-4.77-29.61-21.16v-3.16c-.06-16.42,13.29-21.13,29.61-21.16,16.32,0,29.58,4.77,29.58,21.16ZM546.78,143.33c.1-7.06-5.77-8.35-12.68-8.45-6.94.1-12.81,1.39-12.71,8.45v1.06c-.1,7.1,5.77,8.39,12.71,8.48,6.9-.1,12.77-1.39,12.68-8.48v-1.06Z"/>
    <path class="cls-1" d="M568.69,122.2h21.16l16.9,21.68,16.94-21.68h21.13v43.35h-16.9v-23.13l-16.93,23.13h-8.45l-16.93-23.13v23.13h-16.9v-43.35Z"/>
    <path class="cls-1" d="M710.01,142.3v3.16c.06,16.39-13.29,21.13-29.58,21.16-16.32-.03-29.68-4.77-29.61-21.16v-3.16c-.06-16.42,13.29-21.13,29.61-21.16,16.32,0,29.58,4.77,29.58,21.16ZM693.11,143.33c.1-7.06-5.77-8.35-12.68-8.45-6.93.1-12.81,1.39-12.71,8.45v1.06c-.1,7.1,5.77,8.39,12.71,8.48,6.9-.1,12.77-1.39,12.68-8.48v-1.06Z"/>
    <path class="cls-1" d="M773.18,153.98c.1,7.58-6.29,11.64-13.74,11.64h-44.42v-43.35h41.22c7.52-.03,13.87,4.06,13.77,11.61,0,4.16-1.94,7.35-5.03,9.32,4.9,1.58,8.19,5.32,8.19,10.77ZM731.92,132.56v5.84h19.58c1.45,0,2.65-1.48,2.65-2.94s-1.19-2.9-2.65-2.9h-19.58ZM754.66,155.3c1.45,0,2.65-1.45,2.65-2.9s-1.19-2.9-2.65-2.9h-22.74v5.81h22.74Z"/>
    <path class="cls-1" d="M794.6,122.2v43.35h-16.9v-43.35h16.9Z"/>
    <path class="cls-1" d="M820.47,122.2v29.61h33.84v13.74h-50.74v-43.35h16.9Z"/>
    <path class="cls-1" d="M860.02,122.27h50.74v11.1h-33.84v5.55h33.84v10.03h-33.84v5.55h33.84v11.13h-50.74v-43.35Z"/>
  </g>
</svg>